<svg xmlns="http://www.w3.org/2000/svg" xmlns:xlink="http://www.w3.org/1999/xlink" viewBox="0 0 169.69 146.74"><defs><linearGradient id="linear-gradient" x1="51.65" y1="73.08" x2="51.65" gradientUnits="userSpaceOnUse"><stop offset="0.53" stop-color="#007bc1"/><stop offset="0.88" stop-color="#273a7c"/></linearGradient><linearGradient id="linear-gradient-2" x1="136.32" y1="73.08" x2="136.32" y2="0" xlink:href="#linear-gradient"/><linearGradient id="linear-gradient-3" x1="84.68" y1="73.08" x2="84.68" gradientUnits="userSpaceOnUse"><stop offset="0.53" stop-color="#007bc1"/><stop offset="0.88" stop-color="#27509b"/></linearGradient><linearGradient id="linear-gradient-4" x1="85.14" y1="88.23" x2="83.37" y2="30.33" gradientUnits="userSpaceOnUse"><stop offset="0" stop-color="#8e8f19"/><stop offset="0.09" stop-color="#9da01e"/><stop offset="0.27" stop-color="#b6bb25"/><stop offset="0.42" stop-color="#c5cc29"/><stop offset="0.54" stop-color="#cad22b"/></linearGradient><linearGradient id="linear-gradient-5" x1="103.46" y1="58.98" x2="100.49" y2="89.27" xlink:href="#linear-gradient-4"/></defs><title>cotopaxi-logo_1</title><g id="Capa_2" data-name="Capa 2"><g id="Layer_1" data-name="Layer 1"><path d="M24.65,105.2a13,13,0,0,0-9.55-4.49A13.22,13.22,0,0,0,2.16,113.8,12.38,12.38,0,0,0,6,122.6a13.81,13.81,0,0,0,9.13,3.92,13.53,13.53,0,0,0,9.55-4.34v2.49a14.8,14.8,0,0,1-9.47,3.55c-7.92,0-14.83-6.6-14.83-14.57A14.85,14.85,0,0,1,15.21,99a14.12,14.12,0,0,1,9.43,3.7Z" style="fill:#222221"/><path d="M57.55,113.62A14.76,14.76,0,1,1,42.8,99,14.82,14.82,0,0,1,57.55,113.62Zm-27.7,0A12.94,12.94,0,1,0,42.8,100.71,13,13,0,0,0,29.85,113.62Z" style="fill:#222221"/><path d="M68.12,127.84H66.3V101.09H58.95v-1.7H75.47v1.7H68.12Z" style="fill:#222221"/><path d="M106.38,113.62A14.76,14.76,0,1,1,91.62,99,14.82,14.82,0,0,1,106.38,113.62Zm-27.7,0a12.94,12.94,0,1,0,12.94-12.91A13,13,0,0,0,78.68,113.62Z" style="fill:#222221"/><path d="M112.41,127.84H110.6V99.39h5c2.23,0,4.38.15,6.15,1.66a7.9,7.9,0,0,1,.19,11.47c-1.74,1.51-4.11,1.81-6.34,1.81h-3.21Zm3.28-15.21a6.86,6.86,0,0,0,5-1.55,5.58,5.58,0,0,0,1.85-4.26,5.67,5.67,0,0,0-2.15-4.6c-1.43-1.09-3.25-1.13-5-1.13h-3v11.55Z" style="fill:#222221"/><path d="M128,118.48l-3.81,9.36h-1.85l11.92-29.4,11.89,29.4H144.3l-3.81-9.36ZM134.26,103l-5.58,13.74h11.13Z" style="fill:#222221"/><path d="M146.9,99.39h2l6.53,12.23L162,99.39h2l-7.43,13.92,7.81,14.53h-2L155.43,115l-6.87,12.87h-2l7.77-14.53Z" style="fill:#222221"/><path d="M169.46,127.84h-1.81V99.39h1.81Z" style="fill:#222221"/><path d="M0,134.11H10.76v.69h-5v11.66H5V134.8H0Z" style="fill:#222221"/><path d="M19.14,134.11H28.9v.69h-9v4.91h8.6v.69h-8.6v5.36H29v.69H19.14Z" style="fill:#222221"/><path d="M37.95,134.11h1l9.22,11.25h0V134.11H49v12.35H48l-9.22-11.25h0v11.25h-.8Z" style="fill:#222221"/><path d="M58.68,134.11h.8v12.35h-.8Z" style="fill:#222221"/><path d="M69.39,142.38c0,2.3,1.42,3.67,4.74,3.67,3,0,4.14-1.3,4.14-2.75s-.66-2-3.25-2.54l-2.3-.48C70,139.7,69,138.9,69,137s1.61-3.2,4.67-3.2,5.09,1.14,5.17,3.77H78c-.1-1.42-.9-3.08-4.15-3.08-3,0-4,1.11-4,2.53s.57,2,2.92,2.44l2.54.5c2.47.48,3.82,1.28,3.82,3.25,0,1.68-1.11,3.5-5,3.5-4,0-5.61-1.75-5.61-4.36Z" style="fill:#222221"/><path d="M111.83,141.77a5.84,5.84,0,0,1-6.07,5c-3.75,0-6.58-2.37-6.58-6.45a6.29,6.29,0,0,1,6.58-6.45c3,0,5.24,1.4,5.87,4.15h-.8c-.59-2.37-2.75-3.46-5.07-3.46a5.6,5.6,0,0,0-5.78,5.76,5.47,5.47,0,0,0,5.78,5.76,5,5,0,0,0,5.28-4.27Z" style="fill:#222221"/><path d="M121.09,134.11h.8v11.66H130v.69h-8.89Z" style="fill:#222221"/><path d="M138.51,134.11h.8v7.75c0,2.65,1.25,4.19,4.67,4.19s4.67-1.54,4.67-4.19v-7.75h.8v7.79c0,3.18-1.83,4.84-5.47,4.84s-5.47-1.66-5.47-4.84Z" style="fill:#222221"/><path d="M159,134.11h6.66c2.37,0,3.6,1.11,3.6,3a2.72,2.72,0,0,1-2.42,2.84v0a2.87,2.87,0,0,1,2.84,3c0,1.33-.73,3.39-4.14,3.39H159Zm.8,5.61h5.5c.64,0,3.17,0,3.17-2.51s-2-2.4-3.29-2.4h-5.38Zm0,6.06h5.57c.62,0,3.51,0,3.51-2.77,0-2.6-2.35-2.6-3.72-2.6h-5.36Z" style="fill:#222221"/><path d="M35.49,43.43h0L103.3,0H0V73.08H0C12.12,59.94,24,50.29,35.49,43.43Z" style="fill:url(#linear-gradient)"/><polygon points="103.3 0 162.92 65.96 169.35 73.08 169.35 0 103.3 0" style="fill:url(#linear-gradient-2)"/><polygon points="103.3 0 103.3 0 103.3 0 103.3 0" style="fill:#fff"/><path d="M35.49,43.43a108,108,0,0,1,19.45-9.21c51.53-18.16,92.69,16.17,108,31.75L103.3,0h0L35.48,43.43Z" style="fill:#fff"/><path d="M35.49,43.43C24,50.29,12.12,59.94,0,73.08h66c53.4-17.57,76.59-19,103.29,0L162.92,66C147.62,50.39,87,25.27,35.49,43.43Z" style="fill:url(#linear-gradient-3)"/><path d="M54.93,34.22a108,108,0,0,0-19.45,9.21C87,25.27,147.62,50.39,162.92,66,147.62,50.39,106.46,16.05,54.93,34.22Z" style="fill:#fff"/><path d="M162.92,66c-15.29-15.58-56.45-49.91-108-31.75a108,108,0,0,0-19.45,9.21C24,50.29,12.12,59.94,0,73.08c0,0,12.65,17.57,66,0s76.59-19,103.29,0Z" style="fill:url(#linear-gradient-4)"/><path d="M169.35,78.09s-24-16.69-56.21-11.34C90.55,70.5,65.32,85.21,33,86.62,33,86.62,98.38,100.66,169.35,78.09Z" style="fill:url(#linear-gradient-5)"/></g></g></svg>